:SAMPLES-PER-SECOND 30
:FULLY-SPECIFIED
:DEGREES
468
root  -2.07916 38.053 0.330127 176.141 36.9338 -178.419
RightUpLeg  -13.1598 -9.26785 -9.09818
RightLeg  23.5827 9.65268 4.3651
RightFoot  -4.4325 -0.47439 7.35923
RightToes  -6.40286e-010 0 -3.6325e-017
Spine  7.70448 1.33138 14.1671
Spine1  7.94313 4.93366 -8.5506
HEad  -18.0651 20.1061 -9.80253
LeftShoulder1  -0.344845 4.41969 -31.5124
LeftArm  5.77163 3.39044 -44.3881
LeftForeArm  24.778 -16.5004 -6.57601
LeftHand  -0.0338961 7.76126 0.365797
RightShoulder  -0.463973 -4.85717 27.3982
RightArm  19.8221 2.60322 52.2072
RightForeArm  5.48064 24.0386 4.81337
RightHand  -0.504004 6.12053 -5.41284
LeftUpLeg  -8.07332 -10.7858 7.2368
LeftLeg  49.6644 3.72066 5.07998
LeftFoot  -9.22021 -0.00537867 3.39266
LeftToes  1.32783e-010 1.73515e-011 1.59258e-011
469
root  -1.22017 38.36 0.573718 176.085 32.1886 -179.039
RightUpLeg  -11.4186 -12.4318 -8.91462
RightLeg  22.7662 8.02813 3.462
RightFoot  -4.44921 -0.378909 5.7733
RightToes  -6.40286e-010 0 -3.6325e-017
Spine  8.71206 1.48662 14.0934
Spine1  7.39434 5.25978 -9.25159
HEad  -18.7033 17.1296 -8.99075
LeftShoulder1  -0.340538 4.40199 -31.7847
LeftArm  10.5401 3.39872 -44.2784
LeftForeArm  21.21 -18.7295 -5.73494
LeftHand  -0.0293437 7.30274 0.577243
RightShoulder  -0.50286 -4.96622 27.5399
RightArm  18.795 7.88506 54.7175
RightForeArm  6.84249 27.2416 5.50358
RightHand  -0.48752 7.03291 -4.89379
LeftUpLeg  -11.0331 -6.4431 6.75473
LeftLeg  48.6473 4.71601 6.15426
LeftFoot  -9.59798 0.00997358 3.11274
LeftToes  1.32783e-010 1.73515e-011 1.59258e-011
470
root  -0.397715 38.6301 0.773162 176.278 27.6921 -179.747
RightUpLeg  -10.1048 -14.9638 -8.91235
RightLeg  21.9451 6.23576 2.66362
RightFoot  -4.5728 -0.303322 4.54273
RightToes  -6.40286e-010 0 -3.6325e-017
Spine  9.26972 1.83408 14.3352
Spine1  7.23633 5.86884 -10.3532
HEad  -18.9242 13.4588 -8.44149
LeftShoulder1  -0.273654 4.22574 -31.7629
LeftArm  12.7604 3.37891 -44.68
LeftForeArm  19.9487 -20.2555 -4.98051
LeftHand  -0.0352275 7.17279 0.225398
RightShoulder  -0.555582 -5.09358 28.1655
RightArm  18.7921 14.1203 56.9822
RightForeArm  6.84197 29.8904 6.13807
RightHand  -0.498046 7.94873 -4.70046
LeftUpLeg  -13.0843 -1.72318 5.2203
LeftLeg  44.832 4.17532 4.84656
LeftFoot  -10.493 0.0470617 2.05093
LeftToes  1.32783e-010 1.73515e-011 1.59258e-011
471
root  0.406028 38.8829 0.922591 176.47 23.149 -179.837
RightUpLeg  -8.04597 -17.2002 -8.5932
RightLeg  20.4275 3.96317 1.9906
RightFoot  -4.64847 -0.249243 3.64146
RightToes  -6.40286e-010 0 -3.6325e-017
Spine  9.9915 2.30278 14.9511
Spine1  7.10748 6.54298 -11.0338
HEad  -18.9423 9.30274 -8.40928
LeftShoulder1  -0.224383 4.09776 -31.6676
LeftArm  13.6551 3.11253 -45.5995
LeftForeArm  18.6586 -20.7686 -4.79282
LeftHand  -0.0140263 7.33144 1.43846
RightShoulder  -0.536091 -5.02637 28.3802
RightArm  18.0099 20.1649 58.7587
RightForeArm  8.0529 32.4186 6.70623
RightHand  -0.392638 8.65838 -3.61882
LeftUpLeg  -13.6817 2.3146 3.67961
LeftLeg  38.9419 3.33801 3.26327
LeftFoot  -11.4664 0.0695053 0.766563
LeftToes  1.32783e-010 1.73515e-011 1.59258e-011
472
root  1.14084 39.0705 1.00508 177.095 18.5016 -179.831
RightUpLeg  -6.57175 -18.9382 -8.25878
RightLeg  19.1256 0.996448 1.561
RightFoot  -4.81735 -0.208578 2.96288
RightToes  -6.40286e-010 0 -3.6325e-017
Spine  10.2753 2.97391 15.7883
Spine1  6.90466 7.30225 -11.4013
HEad  -18.38 4.37822 -8.19789
LeftShoulder1  -0.216716 4.06787 -32.2909
LeftArm  14.7734 2.43945 -45.944
LeftForeArm  18.3364 -20.8764 -4.79124
LeftHand  -0.0158269 7.03385 1.46403
RightShoulder  -0.422414 -4.72551 27.6214
RightArm  16.3773 25.5248 59.884
RightForeArm  6.88346 34.0391 7.2028
RightHand  -0.402102 9.26412 -3.56962
LeftUpLeg  -13.7524 4.8106 1.93742
LeftLeg  31.4975 2.18514 1.81342
LeftFoot  -11.6379 0.0849089 -1.04969
LeftToes  1.32783e-010 1.73515e-011 1.59258e-011
473
root  1.79464 39.2357 1.06169 177.951 14.2461 -179.779
RightUpLeg  -5.57304 -19.9739 -7.68568
RightLeg  17.7736 -2.26867 1.19351
RightFoot  -4.96096 -0.180563 2.51469
RightToes  -6.40286e-010 0 -3.6325e-017
Spine  10.4942 3.61295 16.5802
Spine1  6.59228 8.09954 -12.1619
HEad  -18.2704 -0.128351 -7.74736
LeftShoulder1  -0.233916 4.11313 -32.2648
LeftArm  15.2667 2.4751 -46.6567
LeftForeArm  18.151 -21.4529 -4.53923
LeftHand  -0.0183561 7.32251 1.18739
RightShoulder  -0.320759 -4.43833 27.1559
RightArm  14.5858 30.6952 60.4427
RightForeArm  4.46341 34.1067 7.36476
RightHand  -0.37951 9.7781 -3.30186
LeftUpLeg  -13.34 4.90287 0.338056
LeftLeg  23.5008 0.976365 0.768173
LeftFoot  -9.14137 -0.0329504 -0.744281
LeftToes  1.32783e-010 1.73515e-011 1.59258e-011
474
root  2.36318 39.4242 1.09726 178.821 10.254 179.986
RightUpLeg  -4.86689 -20.8895 -7.11804
RightLeg  16.2527 -5.35557 0.519796
RightFoot  -4.79451 -0.167681 2.36187
RightToes  -6.40286e-010 0 -3.6325e-017
Spine  10.6531 4.16541 16.8194
Spine1  6.60282 8.81548 -12.882
HEad  -18.8659 -4.68877 -7.25462
LeftShoulder1  -0.223376 4.08273 -32.467
LeftArm  16.5785 2.60258 -46.7664
LeftForeArm  17.2689 -22.3567 -4.28879
LeftHand  -0.010871 7.52686 1.52766
RightShoulder  -0.252458 -4.2508 26.3275
RightArm  13.5716 35.9935 60.7468
RightForeArm  1.68104 32.1109 6.98963
RightHand  -0.155804 9.92097 -1.57441
LeftUpLeg  -13.52 1.27629 -0.946762
LeftLeg  18.6498 1.66505 0.955467
LeftFoot  -3.20491 -0.503838 7.98674
LeftToes  1.32783e-010 1.73515e-011 1.59258e-011
475
root  2.84767 39.3825 1.13395 179.502 6.39088 179.961
RightUpLeg  -5.50056 -22.7579 -6.35135
RightLeg  17.6451 -7.30517 -0.421803
RightFoot  -5.77609 -0.144447 2.16345
RightToes  -6.40286e-010 0 -3.6325e-017
Spine  11.5024 4.31766 17.6114
Spine1  6.16042 9.27625 -13.6002
HEad  -19.8955 -8.93189 -6.22735
LeftShoulder1  -0.173008 3.95688 -31.9888
LeftArm  16.664 2.99692 -47.0458
LeftForeArm  17.1196 -23.3031 -4.14293
LeftHand  -0.0135417 7.1725 1.51071
RightShoulder  -0.141978 -3.9267 25.388
RightArm  11.7965 40.1217 60.6918
RightForeArm  -1.87735 30.0335 6.64753
RightHand  -0.022873 9.75102 -0.57702
LeftUpLeg  -14.4734 -3.72221 -0.164391
LeftLeg  18.7711 2.13006 1.13356
LeftFoot  -3.04458 -0.395632 5.72273
LeftToes  1.32783e-010 1.73515e-011 1.59258e-011
